<?xml version="1.0" standalone="no"?>
<!DOCTYPE svg PUBLIC "-//W3C//DTD SVG 20010904//EN"
 "http://www.w3.org/TR/2001/REC-SVG-20010904/DTD/svg10.dtd">
<svg version="1.0" xmlns="http://www.w3.org/2000/svg"
 width="37.000000pt" height="37.000000pt" viewBox="0 0 37.000000 37.000000"
 preserveAspectRatio="xMidYMid meet">

<g transform="translate(0.000000,37.000000) scale(0.100000,-0.100000)"
fill="#000000" stroke="none">
<path d="M111 318 c-28 -14 -52 -36 -63 -58 -21 -41 -24 -118 -4 -145 13 -18
15 -18 41 13 28 33 59 44 49 17 -4 -8 -1 -15 5 -15 6 0 11 10 11 23 0 37 12
67 26 67 10 0 12 -11 8 -42 -5 -42 -5 -42 11 -20 9 12 14 26 11 31 -8 12 17
61 32 61 8 0 11 -11 8 -36 -6 -55 2 -70 42 -82 46 -14 54 -4 49 61 -10 115
-124 179 -226 125z m95 -15 c-3 -8 -6 -17 -6 -19 0 -2 -6 -4 -14 -4 -18 0 -30
31 -15 41 18 11 41 -1 35 -18z m-66 -13 c0 -5 -4 -10 -10 -10 -5 0 -10 5 -10
10 0 6 5 10 10 10 6 0 10 -4 10 -10z m110 0 c0 -5 -4 -10 -9 -10 -6 0 -13 5
-16 10 -3 6 1 10 9 10 9 0 16 -4 16 -10z m-150 -20 c0 -5 -4 -10 -10 -10 -5 0
-10 5 -10 10 0 6 5 10 10 10 6 0 10 -4 10 -10z m180 -10 c0 -5 -2 -10 -4 -10
-3 0 -8 5 -11 10 -3 6 -1 10 4 10 6 0 11 -4 11 -10z m-200 -30 c0 -5 -4 -10
-10 -10 -5 0 -10 5 -10 10 0 6 5 10 10 10 6 0 10 -4 10 -10z m230 0 c0 -5 -4
-10 -10 -10 -5 0 -10 5 -10 10 0 6 5 10 10 10 6 0 10 -4 10 -10z"/>
<path d="M210 155 c-10 -12 -10 -15 4 -15 9 0 16 7 16 15 0 8 -2 15 -4 15 -2
0 -9 -7 -16 -15z"/>
<path d="M105 105 c-22 -8 -42 -15 -44 -15 -2 0 2 -7 10 -16 38 -46 139 -59
197 -24 17 11 32 24 32 29 0 26 -104 24 -200 -4 -17 -5 -22 -5 -15 3 6 6 33
17 60 25 32 10 41 16 25 16 -14 0 -43 -6 -65 -14z"/>
<path d="M275 110 c11 -5 27 -9 35 -9 9 0 8 4 -5 9 -11 5 -27 9 -35 9 -9 0 -8
-4 5 -9z"/>
</g>
</svg>
